<mxfile host="app.diagrams.net" agent="Mozilla/5.0 (Windows NT 10.0; Win64; x64) AppleWebKit/537.36 (KHTML, like Gecko) Chrome/129.0.0.0 Safari/537.36" version="24.7.17">
  <diagram name="第 1 页" id="MMxmxStkfbc-HKGitllI">
    <mxGraphModel dx="957" dy="426" grid="1" gridSize="10" guides="1" tooltips="1" connect="1" arrows="1" fold="1" page="1" pageScale="1" pageWidth="827" pageHeight="1169" math="0" shadow="0">
      <root>
        <mxCell id="0" />
        <mxCell id="1" parent="0" />
        <mxCell id="yH5DKiPyY2_BpjZ6cQ-a-11" value="" style="rounded=0;whiteSpace=wrap;html=1;" vertex="1" parent="1">
          <mxGeometry x="530" y="80" width="80" height="60" as="geometry" />
        </mxCell>
        <mxCell id="yH5DKiPyY2_BpjZ6cQ-a-5" value="" style="rounded=0;whiteSpace=wrap;html=1;" vertex="1" parent="1">
          <mxGeometry x="50" y="80" width="470" height="60" as="geometry" />
        </mxCell>
        <mxCell id="yH5DKiPyY2_BpjZ6cQ-a-1" value="lock()" style="rounded=1;whiteSpace=wrap;html=1;" vertex="1" parent="1">
          <mxGeometry x="60" y="100" width="60" height="30" as="geometry" />
        </mxCell>
        <mxCell id="yH5DKiPyY2_BpjZ6cQ-a-2" value="lockInterruptibly()" style="rounded=1;whiteSpace=wrap;html=1;" vertex="1" parent="1">
          <mxGeometry x="130" y="100" width="100" height="30" as="geometry" />
        </mxCell>
        <mxCell id="yH5DKiPyY2_BpjZ6cQ-a-3" value="tryLock()" style="rounded=1;whiteSpace=wrap;html=1;" vertex="1" parent="1">
          <mxGeometry x="240" y="100" width="60" height="30" as="geometry" />
        </mxCell>
        <mxCell id="yH5DKiPyY2_BpjZ6cQ-a-4" value="tryLock(long timeout, TimeUnit unit)" style="rounded=1;whiteSpace=wrap;html=1;" vertex="1" parent="1">
          <mxGeometry x="310" y="100" width="200" height="30" as="geometry" />
        </mxCell>
        <mxCell id="yH5DKiPyY2_BpjZ6cQ-a-6" value="&lt;font style=&quot;font-size: 9px;&quot;&gt;加锁&lt;/font&gt;" style="text;html=1;align=center;verticalAlign=middle;whiteSpace=wrap;rounded=0;" vertex="1" parent="1">
          <mxGeometry x="260" y="82" width="60" height="10" as="geometry" />
        </mxCell>
        <mxCell id="yH5DKiPyY2_BpjZ6cQ-a-9" value="unlock()" style="rounded=1;whiteSpace=wrap;html=1;" vertex="1" parent="1">
          <mxGeometry x="540" y="100" width="60" height="30" as="geometry" />
        </mxCell>
        <mxCell id="yH5DKiPyY2_BpjZ6cQ-a-12" value="&lt;font style=&quot;font-size: 9px;&quot;&gt;解锁&lt;/font&gt;" style="text;html=1;align=center;verticalAlign=middle;whiteSpace=wrap;rounded=0;" vertex="1" parent="1">
          <mxGeometry x="540" y="82" width="60" height="10" as="geometry" />
        </mxCell>
      </root>
    </mxGraphModel>
  </diagram>
</mxfile>
